<mxfile host="app.diagrams.net" modified="2021-04-21T05:49:49.010Z" agent="5.0 (Windows NT 10.0; Win64; x64) AppleWebKit/537.36 (KHTML, like Gecko) Chrome/90.0.4430.72 Safari/537.36" etag="L8BGYLKw3XAkTCgAsbIl" version="14.1.1" type="github">
  <diagram id="C5RBs43oDa-KdzZeNtuy" name="Page-1">
    <mxGraphModel dx="460" dy="851" grid="1" gridSize="10" guides="1" tooltips="1" connect="1" arrows="1" fold="1" page="1" pageScale="1" pageWidth="827" pageHeight="1169" math="0" shadow="0">
      <root>
        <mxCell id="WIyWlLk6GJQsqaUBKTNV-0" />
        <mxCell id="WIyWlLk6GJQsqaUBKTNV-1" parent="WIyWlLk6GJQsqaUBKTNV-0" />
        <mxCell id="6Rj8k4s7zjwcAFOfuELm-27" style="edgeStyle=orthogonalEdgeStyle;rounded=0;orthogonalLoop=1;jettySize=auto;html=1;exitX=1;exitY=0.5;exitDx=0;exitDy=0;entryX=0;entryY=0.5;entryDx=0;entryDy=0;" edge="1" parent="WIyWlLk6GJQsqaUBKTNV-1" source="6Rj8k4s7zjwcAFOfuELm-0" target="6Rj8k4s7zjwcAFOfuELm-1">
          <mxGeometry relative="1" as="geometry" />
        </mxCell>
        <mxCell id="6Rj8k4s7zjwcAFOfuELm-0" value="Enciendes el reloj en 0" style="ellipse;whiteSpace=wrap;html=1;fillColor=#f5f5f5;strokeColor=#666666;fontColor=#333333;" vertex="1" parent="WIyWlLk6GJQsqaUBKTNV-1">
          <mxGeometry x="280" y="220" width="120" height="80" as="geometry" />
        </mxCell>
        <mxCell id="6Rj8k4s7zjwcAFOfuELm-42" value="" style="edgeStyle=orthogonalEdgeStyle;rounded=0;orthogonalLoop=1;jettySize=auto;html=1;" edge="1" parent="WIyWlLk6GJQsqaUBKTNV-1" source="6Rj8k4s7zjwcAFOfuELm-1" target="6Rj8k4s7zjwcAFOfuELm-26">
          <mxGeometry relative="1" as="geometry" />
        </mxCell>
        <mxCell id="6Rj8k4s7zjwcAFOfuELm-1" value="int seg,&lt;br&gt;&amp;nbsp;min, &lt;br&gt;hrs" style="shape=parallelogram;perimeter=parallelogramPerimeter;whiteSpace=wrap;html=1;fixedSize=1;" vertex="1" parent="WIyWlLk6GJQsqaUBKTNV-1">
          <mxGeometry x="430" y="230" width="120" height="60" as="geometry" />
        </mxCell>
        <mxCell id="6Rj8k4s7zjwcAFOfuELm-13" value="" style="edgeStyle=orthogonalEdgeStyle;rounded=0;orthogonalLoop=1;jettySize=auto;html=1;" edge="1" parent="WIyWlLk6GJQsqaUBKTNV-1" source="6Rj8k4s7zjwcAFOfuELm-10" target="6Rj8k4s7zjwcAFOfuELm-12">
          <mxGeometry relative="1" as="geometry" />
        </mxCell>
        <mxCell id="6Rj8k4s7zjwcAFOfuELm-10" value="seg++" style="whiteSpace=wrap;html=1;" vertex="1" parent="WIyWlLk6GJQsqaUBKTNV-1">
          <mxGeometry x="170" y="390" width="120" height="60" as="geometry" />
        </mxCell>
        <mxCell id="6Rj8k4s7zjwcAFOfuELm-18" value="no" style="edgeStyle=orthogonalEdgeStyle;rounded=0;orthogonalLoop=1;jettySize=auto;html=1;exitX=0;exitY=0.5;exitDx=0;exitDy=0;entryX=0;entryY=0.75;entryDx=0;entryDy=0;" edge="1" parent="WIyWlLk6GJQsqaUBKTNV-1" source="6Rj8k4s7zjwcAFOfuELm-12" target="6Rj8k4s7zjwcAFOfuELm-10">
          <mxGeometry x="-0.697" relative="1" as="geometry">
            <mxPoint x="120" y="420" as="targetPoint" />
            <Array as="points">
              <mxPoint x="150" y="500" />
              <mxPoint x="150" y="435" />
            </Array>
            <mxPoint as="offset" />
          </mxGeometry>
        </mxCell>
        <mxCell id="6Rj8k4s7zjwcAFOfuELm-37" value="si" style="edgeStyle=orthogonalEdgeStyle;rounded=0;orthogonalLoop=1;jettySize=auto;html=1;" edge="1" parent="WIyWlLk6GJQsqaUBKTNV-1" source="6Rj8k4s7zjwcAFOfuELm-12" target="6Rj8k4s7zjwcAFOfuELm-14">
          <mxGeometry x="-0.5238" relative="1" as="geometry">
            <mxPoint as="offset" />
          </mxGeometry>
        </mxCell>
        <mxCell id="6Rj8k4s7zjwcAFOfuELm-12" value="seg == 60" style="rhombus;whiteSpace=wrap;html=1;" vertex="1" parent="WIyWlLk6GJQsqaUBKTNV-1">
          <mxGeometry x="190" y="460" width="80" height="80" as="geometry" />
        </mxCell>
        <mxCell id="6Rj8k4s7zjwcAFOfuELm-36" value="" style="edgeStyle=orthogonalEdgeStyle;rounded=0;orthogonalLoop=1;jettySize=auto;html=1;" edge="1" parent="WIyWlLk6GJQsqaUBKTNV-1" source="6Rj8k4s7zjwcAFOfuELm-14" target="6Rj8k4s7zjwcAFOfuELm-16">
          <mxGeometry relative="1" as="geometry" />
        </mxCell>
        <mxCell id="6Rj8k4s7zjwcAFOfuELm-14" value="seg = 0&lt;br&gt;min++" style="whiteSpace=wrap;html=1;" vertex="1" parent="WIyWlLk6GJQsqaUBKTNV-1">
          <mxGeometry x="354" y="470" width="120" height="60" as="geometry" />
        </mxCell>
        <mxCell id="6Rj8k4s7zjwcAFOfuELm-35" value="no" style="edgeStyle=orthogonalEdgeStyle;rounded=0;orthogonalLoop=1;jettySize=auto;html=1;exitX=0;exitY=0.5;exitDx=0;exitDy=0;entryX=0;entryY=0.5;entryDx=0;entryDy=0;" edge="1" parent="WIyWlLk6GJQsqaUBKTNV-1" source="6Rj8k4s7zjwcAFOfuELm-16" target="6Rj8k4s7zjwcAFOfuELm-10">
          <mxGeometry x="-0.8997" relative="1" as="geometry">
            <Array as="points">
              <mxPoint x="140" y="600" />
              <mxPoint x="140" y="420" />
            </Array>
            <mxPoint as="offset" />
          </mxGeometry>
        </mxCell>
        <mxCell id="6Rj8k4s7zjwcAFOfuELm-40" value="si" style="edgeStyle=orthogonalEdgeStyle;rounded=0;orthogonalLoop=1;jettySize=auto;html=1;" edge="1" parent="WIyWlLk6GJQsqaUBKTNV-1" source="6Rj8k4s7zjwcAFOfuELm-16" target="6Rj8k4s7zjwcAFOfuELm-20">
          <mxGeometry relative="1" as="geometry" />
        </mxCell>
        <mxCell id="6Rj8k4s7zjwcAFOfuELm-16" value="min ==60" style="rhombus;whiteSpace=wrap;html=1;" vertex="1" parent="WIyWlLk6GJQsqaUBKTNV-1">
          <mxGeometry x="374" y="559.5" width="80" height="80" as="geometry" />
        </mxCell>
        <mxCell id="6Rj8k4s7zjwcAFOfuELm-24" value="" style="edgeStyle=orthogonalEdgeStyle;rounded=0;orthogonalLoop=1;jettySize=auto;html=1;" edge="1" parent="WIyWlLk6GJQsqaUBKTNV-1" source="6Rj8k4s7zjwcAFOfuELm-20" target="6Rj8k4s7zjwcAFOfuELm-23">
          <mxGeometry relative="1" as="geometry" />
        </mxCell>
        <mxCell id="6Rj8k4s7zjwcAFOfuELm-20" value="min = 0&lt;br&gt;hrs++" style="whiteSpace=wrap;html=1;" vertex="1" parent="WIyWlLk6GJQsqaUBKTNV-1">
          <mxGeometry x="500" y="569.5" width="120" height="60" as="geometry" />
        </mxCell>
        <mxCell id="6Rj8k4s7zjwcAFOfuELm-38" value="no" style="edgeStyle=orthogonalEdgeStyle;rounded=0;orthogonalLoop=1;jettySize=auto;html=1;exitX=0;exitY=0.5;exitDx=0;exitDy=0;entryX=0;entryY=0.25;entryDx=0;entryDy=0;" edge="1" parent="WIyWlLk6GJQsqaUBKTNV-1" source="6Rj8k4s7zjwcAFOfuELm-23" target="6Rj8k4s7zjwcAFOfuELm-10">
          <mxGeometry x="-0.9437" relative="1" as="geometry">
            <mxPoint x="50" y="600" as="targetPoint" />
            <Array as="points">
              <mxPoint x="130" y="686" />
              <mxPoint x="130" y="405" />
            </Array>
            <mxPoint as="offset" />
          </mxGeometry>
        </mxCell>
        <mxCell id="6Rj8k4s7zjwcAFOfuELm-41" value="si" style="edgeStyle=orthogonalEdgeStyle;rounded=0;orthogonalLoop=1;jettySize=auto;html=1;exitX=1;exitY=0.5;exitDx=0;exitDy=0;entryX=1;entryY=0.5;entryDx=0;entryDy=0;" edge="1" parent="WIyWlLk6GJQsqaUBKTNV-1" source="6Rj8k4s7zjwcAFOfuELm-23" target="6Rj8k4s7zjwcAFOfuELm-26">
          <mxGeometry relative="1" as="geometry">
            <Array as="points">
              <mxPoint x="650" y="686" />
              <mxPoint x="650" y="360" />
            </Array>
          </mxGeometry>
        </mxCell>
        <mxCell id="6Rj8k4s7zjwcAFOfuELm-23" value="hrs == 24" style="rhombus;whiteSpace=wrap;html=1;" vertex="1" parent="WIyWlLk6GJQsqaUBKTNV-1">
          <mxGeometry x="520" y="645.5" width="80" height="80" as="geometry" />
        </mxCell>
        <mxCell id="6Rj8k4s7zjwcAFOfuELm-29" style="edgeStyle=orthogonalEdgeStyle;rounded=0;orthogonalLoop=1;jettySize=auto;html=1;exitX=0;exitY=0.5;exitDx=0;exitDy=0;entryX=0.5;entryY=0;entryDx=0;entryDy=0;" edge="1" parent="WIyWlLk6GJQsqaUBKTNV-1" source="6Rj8k4s7zjwcAFOfuELm-26" target="6Rj8k4s7zjwcAFOfuELm-10">
          <mxGeometry relative="1" as="geometry" />
        </mxCell>
        <mxCell id="6Rj8k4s7zjwcAFOfuELm-26" value="seg = 0&lt;br&gt;min = 0&lt;br&gt;hrs = 0" style="rounded=0;whiteSpace=wrap;html=1;" vertex="1" parent="WIyWlLk6GJQsqaUBKTNV-1">
          <mxGeometry x="430" y="330" width="120" height="60" as="geometry" />
        </mxCell>
      </root>
    </mxGraphModel>
  </diagram>
</mxfile>
